<?xml version="1.0" encoding="utf-8"?>
<!-- Generator: Adobe Illustrator 25.1.0, SVG Export Plug-In . SVG Version: 6.00 Build 0)  -->
<svg version="1.1" id="Layer_1" xmlns="http://www.w3.org/2000/svg" xmlns:xlink="http://www.w3.org/1999/xlink" x="0px" y="0px"
	 width="412.09px" height="525.318px" viewBox="0 0 412.09 525.318" style="enable-background:new 0 0 412.09 525.318;"
	 xml:space="preserve">
<style type="text/css">
	.st0{fill:#0DF228;}
	.st1{fill:none;stroke:#0DF228;stroke-width:24;stroke-linecap:round;stroke-linejoin:round;stroke-miterlimit:10;}
	.st2{fill:#0D79F2;}
	.st3{fill:none;stroke:#0D79F2;stroke-width:24;stroke-linecap:round;stroke-linejoin:round;stroke-miterlimit:10;}
	.st4{fill-rule:evenodd;clip-rule:evenodd;fill:#0D79F2;}
	.st5{fill:#F2D70D;}
	.st6{fill:none;stroke:#F2D70D;stroke-width:24;stroke-linecap:round;stroke-linejoin:round;stroke-miterlimit:10;}
	.st7{fill-rule:evenodd;clip-rule:evenodd;fill:#F2D70D;}
	.st8{fill:#F20D0D;}
	.st9{fill:none;stroke:#F20D0D;stroke-width:24;stroke-linecap:round;stroke-linejoin:round;stroke-miterlimit:10;}
	.st10{fill-rule:evenodd;clip-rule:evenodd;fill:#F20D0D;}
</style>
<g>
	<g>
		<path class="st5" d="M59.383,508.482l21.992-57.266h8.164l23.438,57.266h-8.633l-6.68-17.344H73.719l-6.289,17.344H59.383z
			 M75.906,484.967H95.32l-5.977-15.859c-1.823-4.817-3.178-8.775-4.062-11.875c-0.729,3.672-1.758,7.318-3.086,10.938
			L75.906,484.967z"/>
		<path class="st5" d="M128.216,508.482l-15.781-41.484h7.422l8.906,24.844c0.963,2.683,1.849,5.469,2.656,8.359
			c0.625-2.188,1.497-4.817,2.617-7.891l9.219-25.312h7.227l-15.703,41.484H128.216z"/>
		<path class="st5" d="M185.091,495.123l7.266,0.898c-1.146,4.245-3.269,7.539-6.367,9.883c-3.1,2.344-7.058,3.516-11.875,3.516
			c-6.068,0-10.879-1.868-14.434-5.605c-3.555-3.736-5.332-8.978-5.332-15.723c0-6.979,1.797-12.396,5.391-16.25
			c3.594-3.854,8.255-5.781,13.984-5.781c5.547,0,10.078,1.889,13.594,5.664c3.516,3.776,5.273,9.089,5.273,15.938
			c0,0.417-0.014,1.042-0.039,1.875h-30.938c0.26,4.558,1.549,8.047,3.867,10.469c2.317,2.422,5.208,3.633,8.672,3.633
			c2.578,0,4.778-0.677,6.602-2.031C182.577,500.254,184.023,498.092,185.091,495.123z M162.005,483.756h23.164
			c-0.312-3.489-1.198-6.106-2.656-7.852c-2.24-2.708-5.144-4.062-8.711-4.062c-3.229,0-5.944,1.081-8.145,3.242
			C163.456,477.246,162.239,480.137,162.005,483.756z"/>
		<path class="st5" d="M201.107,508.482v-41.484h6.328v6.289c1.614-2.942,3.105-4.883,4.473-5.82s2.871-1.406,4.512-1.406
			c2.369,0,4.778,0.756,7.227,2.266l-2.422,6.523c-1.719-1.016-3.438-1.523-5.156-1.523c-1.537,0-2.917,0.463-4.141,1.387
			c-1.225,0.925-2.097,2.207-2.617,3.848c-0.781,2.5-1.172,5.234-1.172,8.203v21.719H201.107z"/>
		<path class="st5" d="M254.896,503.365c-2.604,2.214-5.111,3.776-7.52,4.688c-2.409,0.911-4.994,1.367-7.754,1.367
			c-4.558,0-8.061-1.113-10.508-3.34c-2.448-2.227-3.672-5.071-3.672-8.535c0-2.031,0.462-3.887,1.387-5.566
			c0.924-1.68,2.135-3.027,3.633-4.043c1.497-1.016,3.184-1.783,5.059-2.305c1.38-0.364,3.463-0.716,6.25-1.055
			c5.677-0.677,9.856-1.484,12.539-2.422c0.025-0.963,0.039-1.575,0.039-1.836c0-2.864-0.664-4.883-1.992-6.055
			c-1.797-1.588-4.467-2.383-8.008-2.383c-3.308,0-5.749,0.58-7.324,1.738c-1.576,1.159-2.741,3.21-3.496,6.152l-6.875-0.938
			c0.625-2.942,1.653-5.318,3.086-7.129c1.432-1.81,3.502-3.203,6.211-4.18c2.708-0.977,5.846-1.465,9.414-1.465
			c3.541,0,6.419,0.417,8.633,1.25c2.213,0.834,3.841,1.882,4.883,3.145c1.041,1.264,1.771,2.858,2.188,4.785
			c0.234,1.198,0.352,3.359,0.352,6.484v9.375c0,6.537,0.149,10.671,0.449,12.402c0.299,1.732,0.892,3.393,1.777,4.98h-7.344
			C255.572,507.024,255.104,505.318,254.896,503.365z M254.31,487.662c-2.553,1.042-6.381,1.928-11.484,2.656
			c-2.891,0.417-4.936,0.886-6.133,1.406c-1.198,0.521-2.123,1.283-2.773,2.285c-0.651,1.003-0.977,2.116-0.977,3.34
			c0,1.875,0.709,3.438,2.129,4.688c1.419,1.25,3.496,1.875,6.23,1.875c2.708,0,5.117-0.592,7.227-1.777
			c2.109-1.185,3.658-2.806,4.648-4.863c0.755-1.588,1.133-3.932,1.133-7.031V487.662z"/>
		<path class="st5" d="M271.028,511.92l6.836,1.016c0.286,2.109,1.08,3.646,2.383,4.609c1.744,1.302,4.127,1.953,7.148,1.953
			c3.255,0,5.768-0.651,7.539-1.953c1.771-1.303,2.969-3.125,3.594-5.469c0.364-1.433,0.533-4.439,0.508-9.023
			c-3.073,3.62-6.901,5.43-11.484,5.43c-5.703,0-10.117-2.057-13.242-6.172c-3.125-4.114-4.688-9.049-4.688-14.805
			c0-3.958,0.716-7.61,2.148-10.957c1.432-3.346,3.509-5.931,6.23-7.754c2.721-1.822,5.918-2.734,9.59-2.734
			c4.896,0,8.932,1.979,12.109,5.938v-5h6.484v35.859c0,6.458-0.658,11.035-1.973,13.73c-1.315,2.695-3.398,4.824-6.25,6.387
			s-6.361,2.344-10.527,2.344c-4.948,0-8.945-1.113-11.992-3.34S270.924,516.398,271.028,511.92z M276.849,486.998
			c0,5.443,1.08,9.414,3.242,11.914c2.161,2.5,4.869,3.75,8.125,3.75c3.229,0,5.938-1.243,8.125-3.73
			c2.188-2.486,3.281-6.387,3.281-11.699c0-5.078-1.127-8.906-3.379-11.484c-2.253-2.578-4.968-3.867-8.145-3.867
			c-3.125,0-5.781,1.27-7.969,3.809S276.849,481.998,276.849,486.998z"/>
		<path class="st5" d="M345.209,495.123l7.266,0.898c-1.146,4.245-3.27,7.539-6.367,9.883c-3.1,2.344-7.059,3.516-11.875,3.516
			c-6.068,0-10.879-1.868-14.434-5.605c-3.555-3.736-5.333-8.978-5.333-15.723c0-6.979,1.798-12.396,5.392-16.25
			c3.594-3.854,8.254-5.781,13.984-5.781c5.547,0,10.078,1.889,13.594,5.664c3.516,3.776,5.273,9.089,5.273,15.938
			c0,0.417-0.014,1.042-0.039,1.875h-30.938c0.26,4.558,1.549,8.047,3.867,10.469c2.316,2.422,5.207,3.633,8.672,3.633
			c2.578,0,4.777-0.677,6.602-2.031C342.695,500.254,344.141,498.092,345.209,495.123z M322.123,483.756h23.164
			c-0.312-3.489-1.199-6.106-2.656-7.852c-2.24-2.708-5.145-4.062-8.711-4.062c-3.23,0-5.945,1.081-8.145,3.242
			C323.574,477.246,322.357,480.137,322.123,483.756z"/>
	</g>
	<path class="st6" d="M206.04,12c107.1,0,194.05,86.95,194.05,194.048s-86.95,194.048-194.05,194.048
		C98.95,400.096,12,313.146,12,206.048S98.95,12,206.04,12z"/>
	<line class="st6" x1="127.02" y1="308.189" x2="285.07" y2="308.189"/>
	<path class="st7" d="M305.71,164.756c11.4,0,20.65,9.252,20.65,20.646c0,11.395-9.25,20.646-20.65,20.646
		c-11.39,0-20.64-9.251-20.64-20.646C285.07,174.008,294.32,164.756,305.71,164.756z M106.37,164.756
		c11.4,0,20.65,9.252,20.65,20.646c0,11.395-9.25,20.646-20.65,20.646c-11.39,0-20.64-9.251-20.64-20.646
		C85.73,174.008,94.98,164.756,106.37,164.756z"/>
</g>
</svg>
