<?xml version="1.0" encoding="utf-8"?>
<!-- Generator: Adobe Illustrator 25.1.0, SVG Export Plug-In . SVG Version: 6.00 Build 0)  -->
<svg version="1.1" id="Layer_1" xmlns="http://www.w3.org/2000/svg" xmlns:xlink="http://www.w3.org/1999/xlink" x="0px" y="0px"
	 width="412.096px" height="504.137px" viewBox="0 0 412.096 504.137" style="enable-background:new 0 0 412.096 504.137;"
	 xml:space="preserve">
<style type="text/css">
	.st0{fill:#0DF228;}
	.st1{fill:none;stroke:#0DF228;stroke-width:24;stroke-linecap:round;stroke-linejoin:round;stroke-miterlimit:10;}
	.st2{fill:#0D79F2;}
	.st3{fill:none;stroke:#0D79F2;stroke-width:24;stroke-linecap:round;stroke-linejoin:round;stroke-miterlimit:10;}
	.st4{fill-rule:evenodd;clip-rule:evenodd;fill:#0D79F2;}
	.st5{fill:#F2D70D;}
	.st6{fill:none;stroke:#F2D70D;stroke-width:24;stroke-linecap:round;stroke-linejoin:round;stroke-miterlimit:10;}
	.st7{fill-rule:evenodd;clip-rule:evenodd;fill:#F2D70D;}
	.st8{fill:#F20D0D;}
	.st9{fill:none;stroke:#F20D0D;stroke-width:24;stroke-linecap:round;stroke-linejoin:round;stroke-miterlimit:10;}
	.st10{fill-rule:evenodd;clip-rule:evenodd;fill:#F20D0D;}
</style>
<g>
	<g>
		<path class="st0" d="M47.2,503.199v-57.266h41.406v6.758H54.778v17.539h31.68v6.719h-31.68v19.492h35.156v6.758H47.2z"/>
		<path class="st0" d="M94.818,503.199l15.156-21.562L95.95,461.715h8.789l6.367,9.727c1.197,1.85,2.161,3.398,2.891,4.648
			c1.146-1.719,2.2-3.242,3.164-4.57l6.992-9.805h8.398l-14.336,19.531l15.43,21.953h-8.633l-8.516-12.891l-2.266-3.477
			l-10.898,16.367H94.818z"/>
		<path class="st0" d="M166.575,488.004l6.914,0.898c-0.756,4.766-2.689,8.496-5.801,11.191c-3.112,2.695-6.934,4.043-11.465,4.043
			c-5.678,0-10.241-1.855-13.691-5.566c-3.451-3.711-5.176-9.029-5.176-15.957c0-4.479,0.742-8.398,2.227-11.758
			s3.743-5.879,6.777-7.559c3.033-1.68,6.334-2.52,9.902-2.52c4.505,0,8.189,1.14,11.055,3.418c2.864,2.279,4.7,5.515,5.508,9.707
			l-6.836,1.055c-0.651-2.786-1.804-4.883-3.457-6.289c-1.654-1.406-3.652-2.109-5.996-2.109c-3.542,0-6.42,1.27-8.633,3.809
			c-2.214,2.539-3.32,6.557-3.32,12.051c0,5.573,1.067,9.623,3.203,12.148c2.135,2.526,4.922,3.789,8.359,3.789
			c2.76,0,5.064-0.846,6.914-2.539C164.908,494.124,166.08,491.519,166.575,488.004z"/>
		<path class="st0" d="M207.903,489.84l7.266,0.898c-1.146,4.245-3.269,7.539-6.367,9.883c-3.1,2.344-7.058,3.516-11.875,3.516
			c-6.068,0-10.879-1.868-14.434-5.605c-3.555-3.736-5.332-8.978-5.332-15.723c0-6.979,1.797-12.396,5.391-16.25
			c3.594-3.854,8.255-5.781,13.984-5.781c5.547,0,10.078,1.889,13.594,5.664c3.516,3.776,5.273,9.089,5.273,15.938
			c0,0.417-0.014,1.042-0.039,1.875h-30.938c0.26,4.558,1.549,8.047,3.867,10.469c2.317,2.422,5.208,3.633,8.672,3.633
			c2.578,0,4.778-0.677,6.602-2.031C205.39,494.971,206.835,492.808,207.903,489.84z M184.818,478.472h23.164
			c-0.312-3.489-1.198-6.106-2.656-7.852c-2.24-2.708-5.144-4.062-8.711-4.062c-3.229,0-5.944,1.081-8.145,3.242
			C186.269,471.963,185.052,474.853,184.818,478.472z"/>
		<path class="st0" d="M223.841,503.199v-57.266h7.031v57.266H223.841z"/>
		<path class="st0" d="M241.614,503.199v-57.266h7.031v57.266H241.614z"/>
		<path class="st0" d="M287.943,489.84l7.266,0.898c-1.146,4.245-3.269,7.539-6.367,9.883c-3.1,2.344-7.058,3.516-11.875,3.516
			c-6.068,0-10.879-1.868-14.434-5.605c-3.555-3.736-5.332-8.978-5.332-15.723c0-6.979,1.797-12.396,5.391-16.25
			c3.594-3.854,8.255-5.781,13.984-5.781c5.547,0,10.078,1.889,13.594,5.664c3.516,3.776,5.273,9.089,5.273,15.938
			c0,0.417-0.014,1.042-0.039,1.875h-30.938c0.26,4.558,1.549,8.047,3.867,10.469c2.317,2.422,5.208,3.633,8.672,3.633
			c2.578,0,4.778-0.677,6.602-2.031C285.429,494.971,286.874,492.808,287.943,489.84z M264.857,478.472h23.164
			c-0.312-3.489-1.198-6.106-2.656-7.852c-2.24-2.708-5.144-4.062-8.711-4.062c-3.229,0-5.944,1.081-8.145,3.242
			C266.308,471.963,265.091,474.853,264.857,478.472z"/>
		<path class="st0" d="M304.036,503.199v-41.484h6.328v5.898c3.047-4.557,7.447-6.836,13.203-6.836c2.5,0,4.798,0.449,6.895,1.348
			c2.096,0.898,3.665,2.077,4.707,3.535c1.041,1.459,1.771,3.19,2.188,5.195c0.26,1.303,0.391,3.581,0.391,6.836v25.508h-7.031
			v-25.234c0-2.864-0.273-5.006-0.82-6.426c-0.547-1.419-1.518-2.552-2.91-3.398c-1.394-0.846-3.027-1.27-4.902-1.27
			c-2.995,0-5.58,0.951-7.754,2.852c-2.175,1.901-3.262,5.508-3.262,10.82v22.656H304.036z"/>
		<path class="st0" d="M363.88,496.91l1.016,6.211c-1.979,0.416-3.75,0.625-5.312,0.625c-2.553,0-4.531-0.404-5.938-1.211
			s-2.396-1.868-2.969-3.184c-0.573-1.314-0.859-4.082-0.859-8.301v-23.867h-5.156v-5.469h5.156v-10.273l6.992-4.219v14.492h7.07
			v5.469h-7.07v24.258c0,2.006,0.123,3.295,0.371,3.867c0.247,0.573,0.65,1.029,1.211,1.367c0.56,0.339,1.36,0.508,2.402,0.508
			C361.575,497.183,362.604,497.093,363.88,496.91z"/>
	</g>
	<circle class="st1" cx="206.048" cy="206.048" r="194.048"/>
	<path class="st1" d="M127.024,294.014v0.001c45.903,37.797,112.145,37.797,158.048,0v-0.001"/>
	<path class="st1" d="M77.636,194.765c0,0,0,0,0.001-0.001c5.027-11.382,16.298-18.725,28.741-18.725
		c12.443,0,23.714,7.343,28.741,18.725c0,0.001,0,0.001,0,0.001"/>
	<path class="st1" d="M276.976,194.765c0,0,0,0,0.001-0.001c5.027-11.382,16.298-18.725,28.741-18.725
		c12.443,0,23.714,7.343,28.741,18.725c0,0.001,0,0.001,0,0.001"/>
</g>
</svg>
