<?xml version="1.0" encoding="utf-8"?>
<!-- Generator: Adobe Illustrator 25.1.0, SVG Export Plug-In . SVG Version: 6.00 Build 0)  -->
<svg version="1.1" id="Layer_1" xmlns="http://www.w3.org/2000/svg" xmlns:xlink="http://www.w3.org/1999/xlink" x="0px" y="0px"
	 width="412.096px" height="515.431px" viewBox="0 0 412.096 515.431" style="enable-background:new 0 0 412.096 515.431;"
	 xml:space="preserve">
<style type="text/css">
	.st0{fill:#0DF228;}
	.st1{fill:none;stroke:#0DF228;stroke-width:24;stroke-linecap:round;stroke-linejoin:round;stroke-miterlimit:10;}
	.st2{fill:#0D79F2;}
	.st3{fill:none;stroke:#0D79F2;stroke-width:24;stroke-linecap:round;stroke-linejoin:round;stroke-miterlimit:10;}
	.st4{fill-rule:evenodd;clip-rule:evenodd;fill:#0D79F2;}
	.st5{fill:#F2D70D;}
	.st6{fill:none;stroke:#F2D70D;stroke-width:24;stroke-linecap:round;stroke-linejoin:round;stroke-miterlimit:10;}
	.st7{fill-rule:evenodd;clip-rule:evenodd;fill:#F2D70D;}
	.st8{fill:#F20D0D;}
	.st9{fill:none;stroke:#F20D0D;stroke-width:24;stroke-linecap:round;stroke-linejoin:round;stroke-miterlimit:10;}
	.st10{fill-rule:evenodd;clip-rule:evenodd;fill:#F20D0D;}
</style>
<g>
	<g>
		<path class="st2" d="M141.927,491.993v-6.719l24.258-0.039v21.25c-3.725,2.969-7.565,5.202-11.523,6.699
			c-3.959,1.498-8.021,2.247-12.188,2.247c-5.625,0-10.736-1.204-15.332-3.614c-4.597-2.408-8.066-5.892-10.41-10.449
			c-2.344-4.557-3.516-9.648-3.516-15.273c0-5.572,1.165-10.774,3.496-15.605c2.33-4.83,5.684-8.418,10.059-10.762
			c4.375-2.344,9.414-3.516,15.117-3.516c4.141,0,7.884,0.671,11.23,2.012c3.346,1.342,5.97,3.21,7.871,5.605
			c1.9,2.396,3.346,5.521,4.336,9.375l-6.836,1.875c-0.859-2.916-1.928-5.208-3.203-6.875c-1.276-1.666-3.1-3.001-5.469-4.004
			c-2.37-1.002-5-1.504-7.891-1.504c-3.464,0-6.459,0.527-8.984,1.582c-2.526,1.055-4.564,2.441-6.113,4.16
			c-1.55,1.719-2.754,3.607-3.613,5.664c-1.459,3.542-2.188,7.383-2.188,11.523c0,5.104,0.879,9.375,2.637,12.812
			s4.316,5.99,7.676,7.656c3.359,1.667,6.927,2.5,10.703,2.5c3.281,0,6.484-0.631,9.609-1.895c3.125-1.263,5.494-2.61,7.109-4.043
			v-10.664H141.927z"/>
		<path class="st2" d="M173.841,493.712c0-7.682,2.135-13.372,6.406-17.07c3.567-3.072,7.916-4.609,13.046-4.609
			c5.703,0,10.364,1.869,13.984,5.605c3.619,3.737,5.43,8.9,5.43,15.488c0,5.339-0.801,9.538-2.402,12.598
			c-1.602,3.061-3.933,5.437-6.992,7.129c-3.061,1.693-6.4,2.54-10.02,2.54c-5.807,0-10.501-1.862-14.082-5.586
			C175.631,506.082,173.841,500.718,173.841,493.712z M181.068,493.712c0,5.312,1.158,9.291,3.477,11.934
			c2.317,2.644,5.234,3.965,8.75,3.965c3.489,0,6.393-1.328,8.711-3.984c2.317-2.656,3.477-6.705,3.477-12.148
			c0-5.13-1.166-9.017-3.496-11.66c-2.331-2.643-5.229-3.965-8.691-3.965c-3.515,0-6.432,1.315-8.75,3.945
			C182.226,484.429,181.068,488.399,181.068,493.712z"/>
		<path class="st2" d="M218.333,493.712c0-7.682,2.135-13.372,6.406-17.07c3.567-3.072,7.916-4.609,13.047-4.609
			c5.703,0,10.364,1.869,13.984,5.605c3.619,3.737,5.43,8.9,5.43,15.488c0,5.339-0.801,9.538-2.402,12.598
			c-1.602,3.061-3.933,5.437-6.992,7.129c-3.061,1.693-6.4,2.54-10.02,2.54c-5.808,0-10.502-1.862-14.082-5.586
			C220.123,506.082,218.333,500.718,218.333,493.712z M225.559,493.712c0,5.312,1.158,9.291,3.477,11.934
			c2.317,2.644,5.234,3.965,8.75,3.965c3.489,0,6.393-1.328,8.711-3.984c2.317-2.656,3.477-6.705,3.477-12.148
			c0-5.13-1.166-9.017-3.496-11.66c-2.331-2.643-5.229-3.965-8.691-3.965c-3.516,0-6.433,1.315-8.75,3.945
			C226.717,484.429,225.559,488.399,225.559,493.712z"/>
		<path class="st2" d="M292.356,514.455v-5.235c-2.631,4.115-6.498,6.172-11.602,6.172c-3.308,0-6.348-0.912-9.121-2.735
			c-2.773-1.822-4.922-4.368-6.445-7.637c-1.523-3.268-2.285-7.024-2.285-11.27c0-4.141,0.689-7.896,2.07-11.27
			c1.38-3.372,3.45-5.957,6.211-7.754c2.76-1.797,5.846-2.695,9.258-2.695c2.5,0,4.727,0.527,6.68,1.582s3.541,2.429,4.766,4.121
			v-20.547h6.992v57.266H292.356z M270.13,493.751c0,5.312,1.119,9.284,3.359,11.914c2.239,2.631,4.883,3.945,7.93,3.945
			c3.072,0,5.684-1.256,7.832-3.77c2.148-2.513,3.223-6.348,3.223-11.504c0-5.677-1.094-9.844-3.281-12.5s-4.883-3.984-8.086-3.984
			c-3.125,0-5.736,1.276-7.832,3.828C271.177,484.233,270.13,488.257,270.13,493.751z"/>
	</g>
	<circle class="st3" cx="206.048" cy="206.048" r="194.048"/>
	<path class="st3" d="M127.024,294.015L127.024,294.015c45.903,37.797,112.145,37.797,158.048,0"/>
	<path class="st4" d="M305.718,164.756c11.395,0,20.646,9.252,20.646,20.646c0,11.395-9.251,20.646-20.646,20.646
		c-11.394,0-20.646-9.251-20.646-20.646C285.072,174.008,294.324,164.756,305.718,164.756z M106.378,164.756
		c11.395,0,20.646,9.252,20.646,20.646c0,11.395-9.251,20.646-20.646,20.646s-20.646-9.251-20.646-20.646
		C85.732,174.008,94.983,164.756,106.378,164.756z"/>
</g>
</svg>
