<?xml version="1.0" standalone="no"?>
<!DOCTYPE svg PUBLIC "-//W3C//DTD SVG 20010904//EN"
 "http://www.w3.org/TR/2001/REC-SVG-20010904/DTD/svg10.dtd">
<svg version="1.0" xmlns="http://www.w3.org/2000/svg"
 width="1797.000000pt" height="599.000000pt" viewBox="0 0 1797.000000 599.000000"
 preserveAspectRatio="xMidYMid meet">
<metadata>
Created by potrace 1.16, written by Peter Selinger 2001-2019
</metadata>
<g transform="translate(0.000000,599.000000) scale(0.100000,-0.100000)"
fill="#000000" stroke="none">
<path d="M8608 3008 c-384 -992 -700 -1811 -704 -1821 -6 -16 133 -17 2835
-17 l2841 0 0 1545 0 1545 215 0 215 0 0 -705 c0 -388 3 -705 8 -704 4 0 153
164 332 364 l325 364 269 1 270 0 -30 -33 c-17 -17 -149 -165 -294 -327 -145
-162 -301 -336 -347 -386 l-84 -92 317 -343 c175 -189 367 -397 427 -461 l109
-118 -268 0 -269 1 -352 382 c-194 211 -366 396 -383 412 l-30 29 0 -737 0
-737 793 0 c762 0 797 1 873 20 204 52 369 146 532 304 94 91 163 180 215 276
26 48 744 1888 908 2325 119 318 14 593 -264 689 l-62 21 -3850 3 -3850 2
-697 -1802z m1192 897 l0 -325 130 0 130 0 0 -185 0 -185 -130 0 -130 0 0
-695 0 -695 -220 0 -220 0 0 695 0 695 -110 0 -110 0 0 185 0 185 110 0 110 0
0 325 0 325 220 0 220 0 0 -325z m1283 -301 c26 -9 49 -20 53 -25 4 -7 -55
-183 -117 -346 -8 -21 -10 -22 -43 -8 -45 19 -129 19 -165 1 -38 -20 -90 -81
-112 -130 -48 -111 -52 -159 -56 -733 l-5 -543 -214 0 -214 0 0 880 0 880 185
0 184 0 3 -112 3 -113 24 40 c63 104 145 175 241 208 59 21 174 21 233 1z
m1223 -4 c110 -28 205 -76 296 -148 43 -34 80 -62 83 -62 3 0 5 43 5 95 l0 95
215 0 215 0 0 -880 0 -880 -215 0 -215 0 0 95 c0 52 -2 95 -5 95 -3 0 -36 -25
-73 -56 -87 -72 -225 -140 -327 -160 -107 -22 -273 -15 -370 16 -300 95 -530
357 -597 680 -17 79 -19 121 -15 250 6 187 26 271 96 415 110 223 310 391 533
446 104 25 272 25 374 -1z m3977 4 c26 -9 49 -20 52 -24 4 -7 -44 -149 -120
-358 -4 -10 -12 -9 -41 3 -46 19 -127 19 -163 1 -38 -20 -90 -81 -113 -133
-47 -106 -51 -156 -55 -730 l-4 -543 -215 0 -214 0 0 880 0 880 185 0 184 0 3
-112 3 -113 24 40 c91 151 207 224 357 225 39 0 91 -7 117 -16z"/>
<path d="M12117 3220 c-129 -23 -265 -127 -327 -249 -57 -115 -75 -265 -46
-403 44 -205 208 -364 401 -387 242 -29 442 88 525 308 47 121 46 311 -1 437
-45 120 -153 226 -275 271 -73 26 -201 37 -277 23z"/>
<path d="M5080 3920 l0 -330 -155 0 -155 0 0 -105 0 -105 155 0 155 0 0 -785
0 -785 120 0 120 0 0 785 0 785 180 0 180 0 0 105 0 105 -180 0 -180 0 0 330
0 330 -120 0 -120 0 0 -330z"/>
<path d="M1399 3630 c-393 -44 -699 -334 -783 -743 -30 -145 -17 -364 29 -502
81 -239 264 -452 469 -545 128 -58 221 -75 416 -74 210 1 279 16 440 96 92 46
117 64 206 153 67 66 118 128 152 185 29 46 52 89 52 95 0 11 -197 112 -203
104 -2 -2 -26 -38 -53 -79 -72 -110 -164 -198 -259 -247 -469 -243 -962 20
-1019 545 l-7 62 801 0 800 0 0 48 c0 72 -27 219 -55 301 -101 299 -354 524
-655 584 -100 20 -238 27 -331 17z m236 -235 c153 -27 296 -102 389 -206 47
-52 126 -200 144 -271 l10 -38 -654 0 c-517 0 -654 3 -654 13 0 6 15 49 34 93
94 228 260 366 491 409 95 18 137 18 240 0z"/>
<path d="M3611 3629 c-163 -29 -297 -103 -433 -240 l-98 -98 0 149 0 150 -115
0 -115 0 0 -890 0 -890 115 0 115 0 0 323 c0 382 14 695 35 791 66 307 360
526 653 488 46 -6 108 -22 138 -36 109 -50 194 -159 231 -297 15 -56 17 -138
20 -666 l4 -603 120 0 120 0 -4 608 c-3 574 -5 612 -25 701 -71 317 -292 506
-602 516 -58 2 -129 0 -159 -6z"/>
<path d="M6511 3624 c-30 -8 -77 -27 -105 -42 -50 -27 -184 -150 -224 -207
l-21 -30 -1 123 0 122 -120 0 -120 0 0 -890 0 -890 119 0 118 0 6 493 c7 606
17 695 93 854 84 177 250 279 388 239 30 -9 58 -16 63 -16 4 0 33 40 63 90
l55 90 16 -33 c37 -73 702 -1562 702 -1572 0 -5 -75 -181 -166 -390 -92 -209
-167 -384 -167 -388 0 -4 55 -7 123 -7 l123 0 524 1198 c287 658 525 1205 528
1215 4 15 -6 17 -119 17 l-124 0 -294 -675 c-162 -371 -297 -673 -300 -671 -3
2 -141 306 -306 675 l-300 671 -130 -1 c-107 -1 -143 3 -199 20 -78 24 -148
26 -225 5z"/>
</g>
</svg>
