<?xml version="1.0" encoding="utf-8"?>
<!-- Generator: Adobe Illustrator 25.2.1, SVG Export Plug-In . SVG Version: 6.00 Build 0)  -->
<svg version="1.1" id="Layer_1" xmlns="http://www.w3.org/2000/svg" xmlns:xlink="http://www.w3.org/1999/xlink" x="0px" y="0px"
	 width="199.404px" height="42.522px" viewBox="0 0 199.404 42.522" style="enable-background:new 0 0 199.404 42.522;"
	 xml:space="preserve">
<style type="text/css">
	.st0{fill-rule:evenodd;clip-rule:evenodd;}
	.st1{fill:#FFFFFF;}
	.st2{fill-rule:evenodd;clip-rule:evenodd;fill:#FFFFFF;}
	.st3{fill:#51658C;}
	.st4{fill-rule:evenodd;clip-rule:evenodd;fill:#A5358D;}
</style>
<g>
	<path class="st3" d="M18.037,28.394l2.197,1.154c-0.721,1.414-1.553,2.557-2.497,3.425c-0.944,0.869-2.006,1.529-3.186,1.982
		c-1.181,0.453-2.516,0.68-4.006,0.68c-3.304,0-5.888-1.083-7.751-3.248C0.932,30.221,0,27.774,0,25.043
		c0-2.569,0.788-4.858,2.366-6.869c2-2.556,4.676-3.834,8.03-3.834c3.453,0,6.21,1.31,8.272,3.928
		c1.466,1.849,2.211,4.157,2.236,6.924H2.68c0.05,2.353,0.801,4.281,2.255,5.785c1.454,1.505,3.25,2.257,5.386,2.257
		c1.031,0,2.035-0.18,3.01-0.538c0.976-0.358,1.805-0.834,2.488-1.428S17.242,29.716,18.037,28.394z M18.037,22.94
		c-0.348-1.39-0.854-2.5-1.519-3.332c-0.665-0.831-1.544-1.501-2.637-2.011c-1.093-0.509-2.243-0.763-3.448-0.763
		c-1.988,0-3.697,0.64-5.125,1.917c-1.043,0.931-1.833,2.327-2.367,4.188H18.037z"/>
	<path class="st3" d="M25.762,14.861h2.606v3.63c1.042-1.39,2.197-2.429,3.462-3.117c1.266-0.689,2.643-1.033,4.132-1.033
		c1.514,0,2.857,0.385,4.03,1.153c1.172,0.771,2.038,1.806,2.597,3.109c0.558,1.303,0.837,3.332,0.837,6.087v10.424h-2.606v-9.661
		c0-2.333-0.097-3.891-0.29-4.672c-0.302-1.341-0.881-2.349-1.737-3.025c-0.856-0.676-1.974-1.014-3.351-1.014
		c-1.576,0-2.988,0.521-4.235,1.563c-1.248,1.042-2.07,2.333-2.467,3.871c-0.249,1.006-0.373,2.843-0.373,5.511v7.427h-2.606V14.861
		z"/>
	<path class="st3" d="M50.534,7.421h2.606v7.52h4.132v2.253H53.14v18h-2.606v-18h-3.555v-2.253h3.555V7.421z"/>
	<path class="st3" d="M60.596,14.861h2.662v2.96c0.794-1.166,1.632-2.038,2.513-2.615c0.881-0.577,1.799-0.865,2.755-0.865
		c0.719,0,1.489,0.229,2.308,0.688l-1.359,2.196c-0.546-0.235-1.005-0.354-1.377-0.354c-0.869,0-1.707,0.356-2.513,1.07
		s-1.421,1.821-1.843,3.322c-0.323,1.154-0.484,3.487-0.484,6.999v6.851h-2.662V14.861z"/>
	<path class="st3" d="M73.379,14.861h2.755l6.96,15.596l6.759-15.596h2.773L80.545,42.522h-2.752l3.898-8.942L73.379,14.861z"/>
</g>
<g>
	<path class="st4" d="M136.36,19.031c-1.57,0-2.875,0.556-3.914,1.666c-1.039,1.111-1.559,2.535-1.559,4.272
		c0,1.749,0.528,3.189,1.586,4.318s2.359,1.693,3.905,1.693c1.596,0,2.919-0.555,3.97-1.666c1.052-1.11,1.577-2.565,1.577-4.364
		c0-1.763-0.525-3.189-1.577-4.281C139.297,19.577,137.968,19.031,136.36,19.031z"/>
	<path class="st4" d="M103.329,0l-18.66,42.51l66.199-0.008V7.043h5.081v16.168l7.483-8.351h6.382l-8.725,9.707l9.768,10.546h-6.308
		l-8.601-9.334v16.722l15.725-0.002c6.55,0,12.44-4,14.86-10.09L199.404,0H103.329z M111.844,19.236h-3.016v15.878h-5.082V19.236
		h-2.605v-4.375h2.605V7.397h5.082v7.464h3.016V19.236z M124.241,19.236c-0.596-0.298-1.086-0.447-1.471-0.447
		c-0.781,0-1.442,0.484-1.982,1.452s-0.81,2.867-0.81,5.696l0.019,0.986v8.19h-5.044V14.861h4.355v2.551
		c0.472-1.006,1.098-1.769,1.88-2.29c0.782-0.521,1.638-0.781,2.568-0.781c0.658,0,1.347,0.174,2.066,0.521L124.241,19.236z
		 M146.783,35.114h-5.081v-2.141c-0.992,0.943-1.987,1.623-2.984,2.038c-0.998,0.416-2.079,0.624-3.244,0.624
		c-2.616,0-4.878-1.015-6.787-3.044c-1.908-2.028-2.863-4.551-2.863-7.566c0-3.127,0.924-5.689,2.771-7.688s4.091-2.997,6.73-2.997
		c1.215,0,2.355,0.229,3.421,0.688c1.066,0.459,2.052,1.147,2.957,2.066v-2.234h5.081V35.114z M182.132,19.236
		c-0.596-0.298-1.086-0.447-1.471-0.447c-0.781,0-1.442,0.484-1.982,1.452s-0.81,2.867-0.81,5.696l0.019,0.986v8.19h-5.044V14.861
		h4.355v2.551c0.472-1.006,1.098-1.769,1.88-2.29c0.782-0.521,1.638-0.781,2.568-0.781c0.658,0,1.347,0.174,2.066,0.521
		L182.132,19.236z"/>
</g>
</svg>
